<svg width="640" height="1014" xmlns="http://www.w3.org/2000/svg">
 <style type="text/css">.st0{fill:#070707;}</style>

 <g>
  <title>background</title>
  <rect fill="none" id="canvas_background" height="602" width="802" y="-1" x="-1"/>
 </g>
 <g>
  <title>Layer 1</title>
  <path stroke-width="0" fill="none" id="svg_1" d="m0,803.8c-0.1,-7.1 0.1,-14.3 0.6,-21.6c7.5,-114.6 98.3,-209.9 211.8,-247.5c-31.7,-20.5 -57.4,-52.9 -70.8,-98.8c-30.9,-106.4 51.7,-231.2 174.9,-232.1c0.8,0 1.6,0 2.4,0c118.2,1.5 229.6,134.5 158.8,267c-13.7,25.6 -34.6,46.5 -59.6,61.8c109.9,33 204.4,118.8 214.7,249.1c0.6,7.4 0.8,14.7 0.7,22l-53,0c-4.4,-117.7 -117.9,-233.3 -260.3,-235.7c-3.4,0 -3.4,0 -6.9,0c-129.1,2.1 -265.5,109.3 -265.8,235.8l-47.5,0l0,0zm315.1,-549.4c-99.9,1.9 -172.9,144.8 -90.2,225.6c75.6,73.8 242.6,10.5 221.6,-115.8c-10.1,-60.8 -66.8,-110.2 -131.4,-109.8l0,0z" class="st0"/>
 </g>
</svg>